<?xml version="1.0" encoding="utf-8"?>
<!-- Generator: Adobe Illustrator 25.1.0, SVG Export Plug-In . SVG Version: 6.00 Build 0)  -->
<svg version="1.1" id="图层_1" xmlns="http://www.w3.org/2000/svg" xmlns:xlink="http://www.w3.org/1999/xlink" x="0px" y="0px"
	 viewBox="0 0 3880 2800" style="enable-background:new 0 0 3880 2800;" xml:space="preserve">
<style type="text/css">
	.st0{fill:url(#prefix-o3R-形状结合_2_);}
	.st1{fill:url(#prefix-foU-矩形_2_);}
	.st2{fill:url(#prefix-Sl6-椭圆形_2_);}
	.st3{fill:url(#prefix-v7i-椭圆形备份_2_);}
	.st4{fill:url(#prefix-xdW-椭圆形备份-2_2_);}
	.st5{fill:url(#prefix-K51-矩形_2_);}
	.st6{fill:url(#prefix-0T9-矩形备份_2_);}
	.st7{fill:url(#prefix-vwx-矩形_2_);}
	.st8{fill:url(#prefix-7PN-矩形备份_2_);}
</style>
<g id="content" transform="matrix(1,0,0,1,76.55,0)">
	<g>
		
			<linearGradient id="prefix-o3R-形状结合_2_" gradientUnits="userSpaceOnUse" x1="984.1769" y1="1501.149" x2="984.1769" y2="1508.349" gradientTransform="matrix(268.96 0 0 315.3133 -262852.3438 -473114.3438)">
			<stop  offset="0" style="stop-color:#DA5E78"/>
			<stop  offset="1" style="stop-color:#B43043"/>
		</linearGradient>
		<path id="prefix-o3R-形状结合_1_" class="st0" d="M2813.79,1871.65l6.34,10.16l-963.9,602.45l-2.45,3.9l-1.92-1.2l-1.87,1.2
			l-2.45-3.9l-963.9-602.42l6.34-10.18l961.92,601.18l961.92-601.2l0,0H2813.79z M1857.87,217.9v1034.66l948,592.51V807.86h12
			v1044.72l2.26,1.44l-2.26,3.58v12.85h-12v-11.2l-948-592.53v1124.82h-12V1266.69l-948,592.53v11.2h-12v-12.82l-2.26-3.6l2.26-1.44
			V807.86h12v1037.23l948-592.51V217.9H1857.87z"/>
		
			<linearGradient id="prefix-foU-矩形_2_" gradientUnits="userSpaceOnUse" x1="980.7753" y1="1500.2479" x2="984.7352" y2="1504.3518" gradientTransform="matrix(134.1429 134.1429 -134.1429 134.1429 71544.8828 -332535.3438)">
			<stop  offset="0" style="stop-color:#FA7F67"/>
			<stop  offset="1" style="stop-color:#FA375B"/>
		</linearGradient>
		<path id="prefix-foU-矩形_1_" class="st1" d="M2817.64,807.86l-965.78,598.02L886,807.86l965.9-601.71L2817.64,807.86
			L2817.64,807.86z M2408.27,807.26l-556.42-346.66L1295.4,807.26l556.45,344.56L2408.27,807.26L2408.27,807.26z"/>
		
			<linearGradient id="prefix-Sl6-椭圆形_2_" gradientUnits="userSpaceOnUse" x1="958.6744" y1="1522.8311" x2="962.6343" y2="1526.9351" gradientTransform="matrix(26.6667 0 0 26.6667 -24712.7129 -38770.7617)">
			<stop  offset="0" style="stop-color:#FA7F67"/>
			<stop  offset="1" style="stop-color:#FA375B"/>
		</linearGradient>
		<circle id="prefix-Sl6-椭圆形_1_" class="st2" cx="903.87" cy="1891.9" r="96"/>
		
			<linearGradient id="prefix-v7i-椭圆形备份_2_" gradientUnits="userSpaceOnUse" x1="989.6744" y1="1542.2061" x2="993.6344" y2="1546.3101" gradientTransform="matrix(26.6667 0 0 26.6667 -24579.3789 -38687.4258)">
			<stop  offset="0" style="stop-color:#FA7F67"/>
			<stop  offset="1" style="stop-color:#FA375B"/>
		</linearGradient>
		<circle id="prefix-v7i-椭圆形备份_1_" class="st3" cx="1863.87" cy="2491.9" r="96"/>
		
			<linearGradient id="prefix-xdW-椭圆形备份-2_2_" gradientUnits="userSpaceOnUse" x1="1020.6743" y1="1522.8311" x2="1024.6343" y2="1526.9351" gradientTransform="matrix(26.6667 0 0 26.6667 -24446.0469 -38770.7617)">
			<stop  offset="0" style="stop-color:#FA7F67"/>
			<stop  offset="1" style="stop-color:#FA375B"/>
		</linearGradient>
		<circle id="prefix-xdW-椭圆形备份-2_1_" class="st4" cx="2823.87" cy="1891.9" r="96"/>
		
			<linearGradient id="prefix-K51-矩形_2_" gradientUnits="userSpaceOnUse" x1="971.0044" y1="1504.3906" x2="972.3723" y2="1508.4948" gradientTransform="matrix(29.86 0 0 50 -27811.4707 -73947.3359)">
			<stop  offset="0" style="stop-color:#FA7F67"/>
			<stop  offset="1" style="stop-color:#FA375B"/>
		</linearGradient>
		<path id="prefix-K51-矩形_1_" class="st5" d="M1095.87,1195.9l214.99,132.7v227.3l-214.99-132.69V1195.9z"/>
		
			<linearGradient id="prefix-0T9-矩形备份_2_" gradientUnits="userSpaceOnUse" x1="980.694" y1="1508.1108" x2="982.062" y2="1512.2147" gradientTransform="matrix(29.86 0 0 50 -27764.8027 -73917.3359)">
			<stop  offset="0" style="stop-color:#FA7F67"/>
			<stop  offset="1" style="stop-color:#FA375B"/>
		</linearGradient>
		<path id="prefix-0T9-矩形备份_1_" class="st6" d="M1431.87,1411.9l214.99,132.7v227.3l-214.99-132.7V1411.9z"/>
		
			<linearGradient id="prefix-vwx-矩形_2_" gradientUnits="userSpaceOnUse" x1="956.3481" y1="1504.3906" x2="957.7161" y2="1508.4948" gradientTransform="matrix(-29.86 0 0 50 31100.5645 -73947.3359)">
			<stop  offset="0" style="stop-color:#FA7F67"/>
			<stop  offset="1" style="stop-color:#FA375B"/>
		</linearGradient>
		<path id="prefix-vwx-矩形_1_" class="st7" d="M2630.86,1195.9l-214.99,132.7v227.3l214.99-132.7V1195.9z"/>
		
			<linearGradient id="prefix-7PN-矩形备份_2_" gradientUnits="userSpaceOnUse" x1="966.0378" y1="1508.1108" x2="967.4058" y2="1512.2147" gradientTransform="matrix(-29.86 0 0 50 31053.8965 -73917.3359)">
			<stop  offset="0" style="stop-color:#FA7F67"/>
			<stop  offset="1" style="stop-color:#FA375B"/>
		</linearGradient>
		<path id="prefix-7PN-矩形备份_1_" class="st8" d="M2294.86,1411.9l-214.99,132.7v227.3l214.99-132.7V1411.9z"/>
	</g>
</g>
</svg>
